<svg id="cart" viewBox="0 0 30 28" fill="none" xmlns="http://www.w3.org/2000/svg">
<path d="M1 1L3.97333 1.43612C4.37456 1.49497 4.70665 1.77841 4.8278 2.16541L5.7963 5.25909M5.7963 5.25909L9.06449 15.6987C9.20241 16.1393 9.61055 16.4392 10.0722 16.4392H24.603C25.0605 16.4392 25.466 16.1445 25.6073 15.7093L28.5513 6.64109C28.7728 5.95888 28.2643 5.25909 27.547 5.25909H5.7963Z" stroke="#313D3B" stroke-width="1.3" stroke-linecap="round" stroke-linejoin="round"/>
<path d="M9.31323 16.7231L8.27984 18.2086C7.79278 18.9087 8.29377 19.8676 9.14665 19.8676H26.3757" stroke="#313D3B" stroke-width="1.3" stroke-linecap="round" stroke-linejoin="round"/>
<path d="M12.2757 24.4251C12.2757 25.5525 11.3899 26.437 10.3331 26.437C9.27627 26.437 8.39048 25.5526 8.39048 24.4251C8.39048 23.2977 9.27627 22.4132 10.3331 22.4132C11.3899 22.4132 12.2757 23.2977 12.2757 24.4251Z" stroke="#313D3B" stroke-width="1.3"/>
<path d="M24.721 24.4251C24.721 25.5525 23.8352 26.437 22.7784 26.437C21.7216 26.437 20.8358 25.5526 20.8358 24.4251C20.8358 23.2977 21.7216 22.4132 22.7784 22.4132C23.8352 22.4132 24.721 23.2977 24.721 24.4251Z" stroke="#313D3B" stroke-width="1.3"/>
</svg>
