<svg id="gmail-icon" viewBox="0 0 27 27" fill="none" xmlns="http://www.w3.org/2000/svg">
<circle cx="13.5" cy="13.5" r="13.5" fill="white"/>
<path d="M22.9995 13.9243C22.9995 13.2853 22.9429 12.6787 22.8459 12.0883H13.7061V15.7361H18.9392C18.7046 16.9332 18.0171 17.9442 16.998 18.6317V21.0582H20.1201C21.9481 19.3677 22.9995 16.8765 22.9995 13.9243Z" fill="#4285F4"/>
<path d="M13.7075 23.4121C16.3281 23.4121 18.5201 22.5386 20.1216 21.0584L16.9995 18.6319C16.1259 19.2143 15.0178 19.5702 13.7075 19.5702C11.1759 19.5702 9.03247 17.8635 8.26408 15.5583H5.04492V18.0576C6.63832 21.2283 9.91409 23.4121 13.7075 23.4121Z" fill="#34A853"/>
<path d="M8.26255 15.5585C8.06034 14.9761 7.95519 14.3533 7.95519 13.7063C7.95519 13.0592 8.06843 12.4364 8.26255 11.854V9.35474H5.04339C4.38015 10.665 4 12.1371 4 13.7063C4 15.2754 4.38015 16.7475 5.04339 18.0578L8.26255 15.5585Z" fill="#FBBC05"/>
<path d="M13.7075 7.84195C15.1392 7.84195 16.4171 8.33535 17.4281 9.29786L20.1944 6.53165C18.5201 4.96251 16.3281 4 13.7075 4C9.91409 4 6.63832 6.18385 5.04492 9.35447L8.26408 11.8538C9.03247 9.54859 11.1759 7.84195 13.7075 7.84195Z" fill="#EA4335"/>
</svg>
