<svg id="instagram" viewBox="0 0 29 29" fill="none" xmlns="http://www.w3.org/2000/svg">
<path d="M9.04384 27.8656H20.4175C24.6049 27.8656 27.9999 24.4706 27.9999 20.2832V8.90957C27.9999 4.72218 24.6049 1.32715 20.4175 1.32715H9.04384C4.85645 1.32715 1.46143 4.72218 1.46143 8.90957V20.2832C1.46143 24.4706 4.85645 27.8656 9.04384 27.8656Z" stroke="white" stroke-width="2" stroke-miterlimit="10"/>
<path d="M14.7305 20.9152C18.2203 20.9152 21.0492 18.0862 21.0492 14.5965C21.0492 11.1068 18.2203 8.27783 14.7305 8.27783C11.2408 8.27783 8.41187 11.1068 8.41187 14.5965C8.41187 18.0862 11.2408 20.9152 14.7305 20.9152Z" stroke="white" stroke-width="2" stroke-miterlimit="10"/>
<path d="M22.3131 8.27747C23.011 8.27747 23.5768 7.71168 23.5768 7.01374C23.5768 6.31579 23.011 5.75 22.3131 5.75C21.6151 5.75 21.0493 6.31579 21.0493 7.01374C21.0493 7.71168 21.6151 8.27747 22.3131 8.27747Z" fill="white"/>
</svg>
