<svg viewBox="0 0 126 39" id="logo" fill="none" xmlns="http://www.w3.org/2000/svg">
<path d="M0 29.9393H17.6017V24.6341H6.16882V1.15151H0V29.9393Z" fill="#313D3B"/>
<path d="M25.777 0.945886C25.119 0.329004 24.3376 0 23.3917 0C22.4047 0 21.6233 0.329004 20.9653 0.945886C20.3073 1.56277 20.0194 2.34415 20.0194 3.24891C20.0194 4.1948 20.3073 4.97618 20.9653 5.59306C21.6233 6.25107 22.4047 6.53895 23.3917 6.53895C24.3376 6.53895 25.119 6.25107 25.777 5.59306C26.3939 4.97618 26.7229 4.1948 26.7229 3.24891C26.7229 2.34415 26.3939 1.56277 25.777 0.945886ZM20.4718 8.80085V29.9393H26.2705V8.80085H20.4718Z" fill="#313D3B"/>
<path d="M31.6685 8.80085H28.1729V13.6948H31.6685V29.9393H37.4672V13.6948H42.7724V8.80085H37.4672V7.81384C37.4672 7.23808 37.5906 6.7857 37.8785 6.49782C38.1252 6.25107 38.5776 6.08657 39.1945 6.08657H42.7724V1.15151H38.043C35.9045 1.15151 34.3417 1.68614 33.2724 2.67315C32.2032 3.66016 31.6685 5.09956 31.6685 6.9502V8.80085Z" fill="#313D3B"/>
<path d="M44.7008 13.6948C43.796 15.3398 43.3848 17.2316 43.3848 19.4112C43.3848 21.5909 43.8372 23.4826 44.7419 25.1277C45.6467 26.7727 46.9627 28.0064 48.69 28.8701C50.4172 29.7748 52.4324 30.1861 54.8177 30.1861C56.6272 30.1861 58.2311 29.8982 59.6293 29.2402C61.0276 28.5822 62.138 27.7186 63.0016 26.567C63.8241 25.4567 64.3588 24.1818 64.6055 22.7835H58.8891C58.6423 23.7705 58.1077 24.5519 57.3263 25.0454C56.5449 25.5389 55.5579 25.7857 54.4064 25.7857C52.9259 25.7857 51.7333 25.3744 50.9107 24.4696C50.0471 23.606 49.5536 22.4134 49.4302 20.8506V20.6861H64.77C64.8523 20.1103 64.9345 19.4523 64.9345 18.7121C64.8934 16.6558 64.3999 14.8874 63.4951 13.3658C62.5904 11.8441 61.3155 10.6515 59.6705 9.82899C58.0255 9.00648 56.1748 8.55409 54.0363 8.55409C51.8978 8.55409 50.0471 9.00648 48.4432 9.91123C46.8393 10.816 45.6056 12.0498 44.7008 13.6948ZM59.1358 16.9026H49.5536C49.7181 15.6688 50.2116 14.7229 51.0753 13.9827C51.9389 13.2424 53.0081 12.8723 54.283 12.8723C55.599 12.8723 56.6683 13.2424 57.532 13.9415C58.3956 14.6407 58.9302 15.6277 59.1358 16.9026Z" fill="#313D3B"/>
<path d="M95.6802 1.14062V29.9284H101.479V1.14062H95.6802Z" fill="#313D3B"/>
<path d="M109.632 8.78996H103.463L111.606 30.0518L111.072 31.4501C110.743 32.1903 110.455 32.6427 110.126 32.8895C109.797 33.1362 109.262 33.2596 108.522 33.2596H105.314V38.1535H110.948C112.018 38.1535 112.881 37.989 113.539 37.6189C114.197 37.2488 114.773 36.7142 115.225 35.9739C115.637 35.2336 116.13 34.2466 116.624 32.9306L126 8.78996H119.79L114.773 23.9653L109.632 8.78996Z" fill="#313D3B"/>
<path d="M92.8545 13.68L67.7603 13.68C67.8926 16.9052 69.2723 19.9545 71.6109 22.1899C73.9495 24.4253 77.0656 25.6736 80.3073 25.6736C83.549 25.6736 86.6653 24.4253 89.0038 22.1899C91.3424 19.9545 92.7221 16.9052 92.8545 13.68Z" fill="#BDC68D"/>
</svg>
