<svg id="footer-logo" viewBox="0 0 129 40" fill="none" xmlns="http://www.w3.org/2000/svg">
<path d="M0 30.6521H18.0207V25.2206H6.31568V1.17893H0V30.6521Z" fill="white"/>
<path d="M26.3906 0.968404C25.717 0.336837 24.917 0 23.9486 0C22.9381 0 22.1381 0.336837 21.4644 0.968404C20.7907 1.59997 20.496 2.39996 20.496 3.32626C20.496 4.29466 20.7907 5.09465 21.4644 5.72621C22.1381 6.39989 22.9381 6.69462 23.9486 6.69462C24.917 6.69462 25.717 6.39989 26.3906 5.72621C27.0222 5.09465 27.3591 4.29466 27.3591 3.32626C27.3591 2.39996 27.0222 1.59997 26.3906 0.968404ZM20.9592 9.01037V30.6521H26.8959V9.01037H20.9592Z" fill="white"/>
<path d="M32.4225 9.01037H28.8436V14.0208H32.4225V30.6521H38.3592V14.0208H43.7907V9.01037H38.3592V7.99986C38.3592 7.41039 38.4855 6.94724 38.7802 6.65251C39.0329 6.39988 39.496 6.23147 40.1276 6.23147H43.7907V1.17893H38.9486C36.7592 1.17893 35.1592 1.72628 34.0645 2.73679C32.9698 3.7473 32.4225 5.22096 32.4225 7.11566V9.01037Z" fill="white"/>
<path d="M45.765 14.0208C44.8387 15.705 44.4176 17.6418 44.4176 19.8733C44.4176 22.1049 44.8808 24.0417 45.8071 25.7259C46.7334 27.41 48.0807 28.6732 49.8491 29.5574C51.6175 30.4837 53.6806 30.9047 56.1227 30.9047C57.9753 30.9047 59.6174 30.61 61.0489 29.9363C62.4805 29.2626 63.6173 28.3784 64.5015 27.1995C65.3436 26.0627 65.8909 24.7575 66.1436 23.3259H60.291C60.0384 24.3364 59.491 25.1364 58.6911 25.6416C57.8911 26.1469 56.8806 26.3995 55.7016 26.3995C54.1859 26.3995 52.9648 25.9785 52.1228 25.0522C51.2386 24.168 50.7333 22.947 50.607 21.347V21.1786H66.312C66.3962 20.5891 66.4804 19.9154 66.4804 19.1576C66.4383 17.0523 65.933 15.2418 65.0067 13.684C64.0804 12.1261 62.7752 10.9051 61.091 10.063C59.4068 9.22089 57.5121 8.75774 55.3227 8.75774C53.1333 8.75774 51.2386 9.22089 49.5965 10.1472C47.9544 11.0735 46.6913 12.3366 45.765 14.0208ZM60.5437 17.305H50.7333C50.9017 16.0418 51.407 15.0734 52.2912 14.3155C53.1754 13.5576 54.2701 13.1787 55.5753 13.1787C56.9227 13.1787 58.0174 13.5576 58.9016 14.2734C59.7858 14.9892 60.3331 15.9997 60.5437 17.305Z" fill="white"/>
<path d="M97.9583 1.16797V30.6411H103.895V1.16797H97.9583Z" fill="white"/>
<path d="M112.243 8.99941H105.927L114.264 30.7674L113.716 32.199C113.379 32.9569 113.085 33.42 112.748 33.6727C112.411 33.9253 111.864 34.0516 111.106 34.0516H107.822V39.062H113.59C114.685 39.062 115.569 38.8936 116.242 38.5147C116.916 38.1357 117.506 37.5884 117.969 36.8305C118.39 36.0726 118.895 35.0621 119.4 33.7148L129 8.99941H122.642L117.506 24.536L112.243 8.99941Z" fill="white"/>
<path d="M95.0651 14.0061L69.3735 14.0061C69.509 17.3081 70.9216 20.4299 73.3158 22.7186C75.7101 25.0072 78.9004 26.2852 82.2193 26.2852C85.5382 26.2852 88.7286 25.0072 91.1228 22.7186C93.5171 20.4299 94.9297 17.3081 95.0651 14.0061Z" fill="#BFCC80"/>
</svg>
