<svg id="star" viewBox="0 0 107 16" fill="none" xmlns="http://www.w3.org/2000/svg">
<path d="M8.5 0L11.053 4.98603L16.584 5.87336L12.6309 9.84222L13.4962 15.3766L8.5 12.8435L3.50383 15.3766L4.36909 9.84222L0.416019 5.87336L5.94695 4.98603L8.5 0Z" fill="#BFCC80"/>
<path d="M31 0L33.7032 4.98603L39.5595 5.87336L35.3739 9.84222L36.2901 15.3766L31 12.8435L25.7099 15.3766L26.6261 9.84222L22.4405 5.87336L28.2968 4.98603L31 0Z" fill="#BFCC80"/>
<path d="M53.5 0L56.053 4.98603L61.584 5.87336L57.6309 9.84222L58.4962 15.3766L53.5 12.8435L48.5038 15.3766L49.3691 9.84222L45.416 5.87336L50.947 4.98603L53.5 0Z" fill="#BFCC80"/>
<path d="M76 0L78.7032 4.98603L84.5595 5.87336L80.3739 9.84222L81.2901 15.3766L76 12.8435L70.7099 15.3766L71.6261 9.84222L67.4405 5.87336L73.2968 4.98603L76 0Z" fill="#BFCC80"/>
<path d="M98.5 0L101.053 4.98603L106.584 5.87336L102.631 9.84222L103.496 15.3766L98.5 12.8435L93.5038 15.3766L94.3691 9.84222L90.416 5.87336L95.947 4.98603L98.5 0Z" fill="#BFCC80"/>
</svg>
